#!OML:ASF F:\VICON\USERDATA\INSTALL\rory3\rory3.ASF
:FULLY-SPECIFIED
:DEGREES
348
root 0.302768 17.6233 38.333 -0.991952 -6.84693 -7.69695
lowerback 10.5743 2.20502 6.5835
upperback 1.06576 3.79258 2.04048
thorax -4.52487 1.76485 -2.09376
lowerneck -16.7791 -3.08653 -1.64261
upperneck 20.1308 -3.92726 0.36528
head 9.13567 -1.92221 -0.101796
rclavicle -1.41696e-014 1.56046e-014
rhumerus -20.1842 -9.30325 -83.0584
rradius 31.1757
rwrist -1.87371
rhand -17.7803 22.3842
rfingers 7.12502
rthumb 8.48239 -7.42544
lclavicle -1.41696e-014 1.56046e-014
lhumerus -35.4329 9.45131 79.3368
lradius 23.3044
lwrist 2.03421
lhand -25.331 21.5064
lfingers 7.12502
lthumb 1.19184 51.4829
rfemur 6.31445 8.76325 35.4541
rtibia 25.7325
rfoot -21.4064 -10.0711
rtoes -0.73382
lfemur -25.0206 -5.69556 -6.83899
ltibia 9.61635
lfoot -4.271 6.98219
ltoes -8.37118
349
root 0.315671 17.5998 38.502 -0.848109 -7.02075 -7.82302
lowerback 10.8195 2.25511 6.71642
upperback 0.839671 3.91005 2.04158
thorax -4.88227 1.80297 -2.20113
lowerneck -16.5368 -3.02288 -1.66097
upperneck 20.1978 -3.83195 0.333183
head 9.11331 -1.88374 -0.0942303
rclavicle 3.00041e-015 9.39258e-015
rhumerus -20.5509 -9.08226 -83.0373
rradius 31.5384
rwrist -1.9829
rhand -17.935 22.5987
rfingers 7.12502
rthumb 8.33307 -7.21689
lclavicle 3.00041e-015 9.39258e-015
lhumerus -35.9997 9.50284 79.2039
lradius 23.2525
lwrist 1.96512
lhand -25.2188 23.4013
lfingers 7.12502
lthumb 1.30027 53.3771
rfemur 6.59625 8.79141 35.5494
rtibia 26.1007
rfoot -21.5599 -9.54375
rtoes -1.1166
lfemur -24.5656 -5.26529 -6.84055
ltibia 8.02562
lfoot -4.63358 6.7652
ltoes -10.5078
350
root 0.329027 17.5845 38.6871 -0.677865 -7.12162 -7.82824
lowerback 10.6797 2.2628 6.7454
upperback 0.740572 3.91578 2.0073
thorax -4.90399 1.80238 -2.24922
lowerneck -16.1741 -3.00062 -1.4804
upperneck 19.9872 -3.82905 0.230575
head 8.96817 -1.88249 -0.150477
rclavicle -9.17515e-015 3.00165e-014
rhumerus -20.591 -8.96836 -83.0769
rradius 31.6662
rwrist -2.07725
rhand -18.0566 23.2819
rfingers 7.12502
rthumb 8.21573 -6.53838
lclavicle -9.17515e-015 3.00165e-014
lhumerus -36.4136 9.62176 79.084
lradius 23.1829
lwrist 2.05722
lhand -25.3603 25.3944
lfingers 7.12502
lthumb 1.16356 55.371
rfemur 6.88965 8.85839 35.5131
rtibia 26.5252
rfoot -21.3899 -9.49496
rtoes -1.15636
lfemur -24.191 -4.91821 -7.00693
ltibia 6.98457
lfoot -4.45186 6.91659
ltoes -11.0236
351
root 0.348598 17.5758 38.8839 -0.625312 -7.25717 -7.55155
lowerback 10.4006 2.3125 6.60085
upperback 0.683731 3.93846 1.90105
thorax -4.80761 1.81852 -2.26979
lowerneck -15.5942 -2.95751 -1.34883
upperneck 19.6295 -3.78745 0.138782
head 8.73488 -1.86703 -0.184925
rclavicle -9.34909e-015 7.45443e-015
rhumerus -20.6782 -9.02609 -83.0046
rradius 31.6599
rwrist -1.85792
rhand -18.1433 23.8316
rfingers 7.12502
rthumb 8.132 -5.99192
lclavicle -9.34909e-015 7.45443e-015
lhumerus -36.7781 10.0871 78.8088
lradius 22.7994
lwrist 1.61665
lhand -25.1637 26.5502
lfingers 7.12502
lthumb 1.35345 56.5256
rfemur 7.27652 8.88322 35.1128
rtibia 26.9937
rfoot -21.4707 -9.45745
rtoes -3.40998
lfemur -23.9084 -4.61384 -7.60221
ltibia 6.7779
lfoot -3.85805 7.23356
ltoes -11.9768
352
root 0.373581 17.5669 39.0772 -0.562976 -7.14441 -6.84054
lowerback 10.1987 2.25797 6.00621
upperback 0.82414 3.76113 1.65564
thorax -4.58186 1.75196 -2.15818
lowerneck -16.6892 -2.9004 -1.342
upperneck 20.1677 -3.70606 0.167258
head 9.11911 -1.81832 -0.189439
rclavicle 4.58074e-014 3.39922e-014
rhumerus -20.3698 -8.87985 -83.1609
rradius 31.9001
rwrist -2.01261
rhand -17.8732 23.3367
rfingers 7.12502
rthumb 8.39266 -6.47658
lclavicle 4.58074e-014 3.39922e-014
lhumerus -36.5351 10.8148 78.4911
lradius 22.3318
lwrist 1.1752
lhand -25.1837 28.1968
lfingers 7.12502
lthumb 1.33418 58.1724
rfemur 7.58233 8.65662 34.1769
rtibia 27.4953
rfoot -21.2972 -8.95763
rtoes -3.79365
lfemur -24.1257 -4.57989 -8.70774
ltibia 7.55735
lfoot -3.53499 7.25752
ltoes -11.835
353
root 0.39349 17.5562 39.2693 -0.573626 -7.03626 -6.55708
lowerback 10.1893 2.21861 5.87808
upperback 0.81586 3.68643 1.49878
thorax -4.58838 1.71612 -2.24061
lowerneck -17.2394 -2.95701 -1.38249
upperneck 20.6293 -3.77448 0.182321
head 9.38209 -1.84736 -0.199959
rclavicle 2.61899e-014 1.3418e-014
rhumerus -20.4445 -9.06427 -83.22
rradius 32.175
rwrist -2.01817
rhand -17.752 22.7897
rfingers 7.12502
rthumb 8.50972 -7.01881
lclavicle 2.61899e-014 1.3418e-014
lhumerus -36.656 11.0238 78.2569
lradius 21.9335
lwrist 0.994843
lhand -25.5198 29.8549
lfingers 7.12502
lthumb 1.00958 59.8323
rfemur 7.92051 8.45586 33.7728
rtibia 28.1283
rfoot -21.2537 -8.84613
rtoes -5.44657
lfemur -24.3394 -4.54133 -9.32775
ltibia 8.66255
lfoot -3.50537 7.40719
ltoes -9.99042
354
root 0.411161 17.5417 39.4572 -0.681117 -7.08639 -6.67635
lowerback 10.2712 2.20105 6.02723
upperback 0.896091 3.68404 1.54397
thorax -4.54371 1.71503 -2.27793
lowerneck -17.2137 -2.98156 -1.34326
upperneck 20.5226 -3.77404 -0.00460575
head 9.33523 -1.86586 -0.269044
rclavicle -1.91454e-014 7.7526e-015
rhumerus -20.4026 -9.27792 -83.1527
rradius 32.2964
rwrist -1.69551
rhand -17.6946 22.8055
rfingers 7.12502
rthumb 8.56503 -7.00075
lclavicle -1.91454e-014 7.7526e-015
lhumerus -36.788 11.0804 78.2785
lradius 21.6584
lwrist 1.11523
lhand -25.9842 31.1147
lfingers 7.12502
lthumb 0.560966 61.0938
rfemur 8.25721 8.37111 33.8398
rtibia 28.8992
rfoot -21.1504 -8.8806
rtoes -7.90916
lfemur -24.4733 -4.35148 -9.49916
ltibia 10.0607
lfoot -3.70295 7.9696
ltoes -8.0458
355
root 0.432493 17.5347 39.6479 -0.716307 -6.97554 -6.47081
lowerback 10.1799 2.19581 5.95602
upperback 0.965507 3.65418 1.45711
thorax -4.42065 1.70636 -2.31832
lowerneck -16.8845 -3.0417 -1.51417
upperneck 20.2041 -3.86524 0.220202
head 9.17364 -1.89893 -0.166976
rclavicle -6.79906e-014 -1.07344e-014
rhumerus -20.2823 -9.66711 -83.0854
rradius 32.1464
rwrist -1.52592
rhand -17.969 23.131
rfingers 7.12502
rthumb 8.30028 -6.68597
lclavicle -6.79906e-014 -1.07344e-014
lhumerus -36.7562 11.4663 78.109
lradius 21.2191
lwrist 0.717857
lhand -26.231 32.2386
lfingers 7.12502
lthumb 0.322638 62.2181
rfemur 8.47756 8.28711 33.5482
rtibia 29.6665
rfoot -20.8255 -8.74278
rtoes -9.86162
lfemur -24.7383 -3.64951 -10.3653
ltibia 11.6212
lfoot -4.20188 7.84436
ltoes -6.28278
356
root 0.449069 17.5265 39.8436 -0.79081 -6.93653 -6.45024
lowerback 10.3128 2.21537 5.92762
upperback 0.964262 3.69014 1.51995
thorax -4.49929 1.7224 -2.24856
lowerneck -16.7806 -3.1043 -1.81412
upperneck 20.0718 -3.90216 0.353071
head 9.11895 -1.92529 -0.0740756
rclavicle -4.21858e-014 -1.963e-014
rhumerus -20.4643 -10.0465 -82.8342
rradius 32.2347
rwrist -1.26586
rhand -17.9812 23.3531
rfingers 7.12502
rthumb 8.28849 -6.4643
lclavicle -4.21858e-014 -1.963e-014
lhumerus -36.804 12.3972 77.7794
lradius 20.5604
lwrist -0.180902
lhand -26.5247 33.1776
lfingers 7.12502
lthumb 0.0390171 63.1574
rfemur 8.79686 8.29731 33.507
rtibia 30.4283
rfoot -20.2791 -8.45208
rtoes -10.775
lfemur -24.7611 -3.24702 -10.8761
ltibia 12.9739
lfoot -4.57259 7.46535
ltoes -5.32031
357
root 0.468073 17.5259 40.0665 -0.921378 -6.93276 -6.15478
lowerback 10.1094 2.28171 5.72755
upperback 1.08949 3.72954 1.42176
thorax -4.25696 1.75494 -2.23028
lowerneck -17.0467 -3.1705 -1.71206
upperneck 20.0876 -4.00351 0.297676
head 9.17043 -1.96947 -0.127376
rclavicle -9.15652e-015 1.33683e-014
rhumerus -20.5841 -10.3526 -82.7313
rradius 32.2729
rwrist -1.36811
rhand -18.1075 23.828
rfingers 7.12502
rthumb 8.16658 -5.99421
lclavicle -9.15652e-015 1.33683e-014
lhumerus -36.7227 13.1244 77.4149
lradius 19.9204
lwrist -1.05079
lhand -26.9127 33.7579
lfingers 7.12502
lthumb -0.33578 63.7373
rfemur 9.25622 8.17014 33.0618
rtibia 31.1692
rfoot -19.6629 -7.74295
rtoes -9.60143
lfemur -24.4741 -3.12983 -11.597
ltibia 14.1286
lfoot -4.84308 6.64956
ltoes -5.83834
358
root 0.492342 17.5377 40.2984 -1.26103 -6.8702 -5.76778
lowerback 10.0155 2.30045 5.53036
upperback 1.17132 3.71578 1.28179
thorax -4.12274 1.75634 -2.2571
lowerneck -16.8257 -3.19015 -1.5705
upperneck 19.9498 -4.04616 0.18825
head 9.07705 -1.99242 -0.188126
rclavicle -2.66247e-014 -2.0276e-014
rhumerus -21.0274 -10.8494 -82.5864
rradius 32.4599
rwrist -1.23064
rhand -17.979 23.8315
rfingers 7.12502
rthumb 8.29059 -5.98586
lclavicle -2.66247e-014 -2.0276e-014
lhumerus -36.9899 13.6472 77.0668
lradius 19.5517
lwrist -1.65838
lhand -27.0568 34.8662
lfingers 7.12502
lthumb -0.474908 64.8454
rfemur 9.95397 7.83232 32.462
rtibia 31.8062
rfoot -18.8921 -7.00711
rtoes -9.06269
lfemur -23.9707 -3.14906 -12.4087
ltibia 15.2973
lfoot -4.5384 5.14995
ltoes -5.33235
